<?xml version="1.0" encoding="UTF-8"?>
<svg id="Layer_1" data-name="Layer 1" xmlns="http://www.w3.org/2000/svg" xmlns:xlink="http://www.w3.org/1999/xlink" viewBox="0 0 841.99 473.76">
  <defs>
    <style>
      .cls-1 {
        fill: url(#linear-gradient);
      }

      .cls-2 {
        fill: #d1eff7;
      }
    </style>
    <linearGradient id="linear-gradient" x1="0" y1="332.62" x2="841.99" y2="332.62" gradientUnits="userSpaceOnUse">
      <stop offset="0" stop-color="#0077b6"/>
      <stop offset=".49" stop-color="#00b4d8"/>
      <stop offset="1" stop-color="#90e0ef"/>
    </linearGradient>
  </defs>
  <path class="cls-2" d="M793.68,245.59c0,125.52-102.13,227.65-227.68,227.65h-166.02l-72.88-186.01-2.89-7.34-.47-1.2-.42-1.08-13.97-35.67.12-.02-41.13-105.91-131.62,337.23H54.71L231.92.52h73.01l93.31,257.23.07.19.07.19,53.99,138.3,113.63-.07c83.15,0,150.8-67.65,150.8-150.78s-67.65-150.8-150.8-150.8h-122.19c-9.66,8.94-22.57,14.39-36.73,14.39-29.89,0-54.11-24.24-54.11-54.11S377.19.96,407.08.96c15.5,0,29.47,6.52,39.34,16.96h119.58c125.55,0,227.68,102.13,227.68,227.67Z"/>
  <path class="cls-1" d="M751.34,227.41c30.89,0,61.15.81,90.65,2.28-38.92-6.5-81.11-11.46-125.63-14.58.29,0,.58,0,.87-.01-70.72-7.96-151.75-10.33-237.67-5.73C210.41,223.79-4.26,300.96.06,381.73c1.15,21.4,17.6,40.88,46.13,57.72-16.56-13.72-25.93-28.8-26.79-44.95-3.21-59.99,150.73-126.78,319.22-159.76-111.31,26.84-221.69,76.78-221.69,122.97,0,38.92,50.68,74.26,133.18,100.49-29.91-20.31-46.64-42.75-46.64-66.38,0-90.8,245.29-164.41,547.86-164.41Z"/>
</svg>