<?xml version="1.0" encoding="UTF-8"?>
<svg id="Layer_1" data-name="Layer 1" xmlns="http://www.w3.org/2000/svg" xmlns:xlink="http://www.w3.org/1999/xlink" viewBox="0 0 5786.98 461.08">
  <defs>
    <style>
      .cls-1 {
        fill: url(#linear-gradient);
      }

      .cls-2 {
        fill: #03045e;
      }
    </style>
    <linearGradient id="linear-gradient" x1="0" y1="298.95" x2="820.38" y2="298.95" gradientUnits="userSpaceOnUse">
      <stop offset="0" stop-color="#0077b6"/>
      <stop offset=".49" stop-color="#00b4d8"/>
      <stop offset="1" stop-color="#90e0ef"/>
    </linearGradient>
  </defs>
  <path class="cls-2" d="M844.87,331.48l67.77,30.6-9.57,12.01c-43.96,55.29-109.58,87-180.11,87-126.93,0-230.25-103.28-230.25-230.25S596.03.5,722.96.5c70.49,0,136.15,31.75,180.19,87.04l9.57,12.05-36.94,16.71q-28.28,12.77-33.47,10.05l-1.88-1-1.39-1.52c-29.76-32.39-72.04-50.98-116-50.98-87.12,0-157.97,70.89-157.97,157.97s70.85,157.89,157.89,157.89h4.47c42.32-1.2,82.81-19.59,111.61-50.9l5.82-6.34Z"/>
  <path class="cls-2" d="M1293.84,331.48l67.73,30.6-9.53,12.01c-43.96,55.29-109.62,87-180.11,87-126.97,0-230.25-103.28-230.25-230.25S1044.96.5,1171.93.5c70.49,0,136.15,31.75,180.19,87.04l9.53,12.05-36.94,16.71q-28.24,12.77-33.43,10.05l-1.88-1-1.44-1.52c-29.72-32.39-72-50.98-115.96-50.98-87.12,0-157.97,70.89-157.97,157.97s70.85,157.89,157.89,157.89h4.47c42.32-1.2,82.77-19.59,111.58-50.9l5.86-6.34Z"/>
  <polygon class="cls-2" points="1465.65 72.91 1465.65 194.61 1680.02 194.61 1680.02 266.97 1465.65 266.97 1465.65 388.72 1745.21 388.72 1745.21 461.08 1393.29 461.08 1393.29 .5 1745.21 .5 1745.21 72.91 1465.65 72.91"/>
  <polygon class="cls-2" points="2062.38 389 2062.38 461.08 1785.98 461.08 1785.98 .5 1857.98 .5 1857.98 389 2062.38 389"/>
  <polygon class="cls-2" points="2174.19 72.91 2174.19 194.61 2388.53 194.61 2388.53 266.97 2174.19 266.97 2174.19 388.72 2453.75 388.72 2453.75 461.08 2101.83 461.08 2101.83 .5 2453.75 .5 2453.75 72.91 2174.19 72.91"/>
  <path class="cls-2" d="M2717.51,280.7c59.92-17.39,103.24-73.56,103.24-137.26,0-78.78-64.1-142.93-142.85-142.93h-183.38v460.58h72.28v-174.72h68.85l109.58,174.72h85.37l-113.09-180.39ZM2748.42,143.43c0,38.89-31.63,70.57-70.53,70.57h-111.09V72.83h111.09c38.89,0,70.53,31.67,70.53,70.61Z"/>
  <path class="cls-2" d="M3100.94.5h-70.09l-179.67,460.58h77.51l4.91-12.61c20.86-37.66,67.93-104.59,150.95-135.67,17.79-6.62,36.3-11.29,55.13-13.92,1.6,4.27,3.75,9.77,6.58,17.03,5.94,15.32,13.92,35.7,21.9,56.09,15.96,40.77,31.95,81.46,31.95,81.46l2.95,7.62h77.59L3100.94.5ZM3059.17,245.11c-19.9,7.5-38.97,16.83-57.04,27.92l63.78-163.51,46.95,120.39c-16.91,3.07-34.67,8.1-53.69,15.2Z"/>
  <polygon class="cls-2" points="3627.26 .5 3627.26 72.83 3469.18 72.83 3469.18 461.08 3396.85 461.08 3396.85 72.83 3238.8 72.83 3238.8 .5 3627.26 .5"/>
  <polygon class="cls-2" points="3738.92 72.91 3738.92 194.61 3953.29 194.61 3953.29 266.97 3738.92 266.97 3738.92 388.72 4018.47 388.72 4018.47 461.08 3666.56 461.08 3666.56 .5 4018.47 .5 4018.47 72.91 3738.92 72.91"/>
  <path class="cls-2" d="M4872.92.5h-70.09l-179.67,460.58h77.51l4.91-12.61c20.86-37.66,67.93-104.59,150.95-135.67,17.79-6.62,36.3-11.29,55.13-13.92,1.6,4.27,3.75,9.77,6.58,17.03,5.94,15.32,13.92,35.7,21.9,56.09,15.96,40.77,31.95,81.46,31.95,81.46l2.95,7.62h77.59L4872.92.5ZM4831.15,245.11c-19.91,7.5-38.97,16.83-57.05,27.92l63.79-163.51,46.95,120.39c-16.91,3.07-34.67,8.1-53.69,15.2Z"/>
  <polygon class="cls-2" points="5399.24 .5 5399.24 72.83 5241.15 72.83 5241.15 461.08 5168.83 461.08 5168.83 72.83 5010.78 72.83 5010.78 .5 5399.24 .5"/>
  <path class="cls-2" d="M5607.27.5h-70.09l-179.71,460.58h77.55l4.91-12.61c20.86-37.66,67.93-104.59,150.91-135.67,17.83-6.62,36.34-11.29,55.17-13.92,1.6,4.27,3.75,9.77,6.54,17.03,5.98,15.32,13.96,35.7,21.94,56.09,15.96,40.77,31.95,81.46,31.95,81.46l2.95,7.62h77.59L5607.27.5ZM5565.51,245.11c-19.91,7.5-39.01,16.83-57.04,27.92l63.78-163.51,46.95,120.39c-16.91,3.07-34.67,8.1-53.69,15.2Z"/>
  <polygon class="cls-2" points="502.17 461.07 424.59 461.07 287.4 94.19 150.22 461.07 72.67 461.07 252.38 .49 322.47 .49 502.17 461.07"/>
  <path class="cls-1" d="M732.06,196.44c30.1,0,59.58.79,88.32,2.22-37.92-6.34-79.02-11.16-122.4-14.21.28,0,.57,0,.85-.01-68.91-7.75-147.86-10.07-231.57-5.58C205.01,192.91-4.15,268.1.06,346.8c1.12,20.85,17.15,39.84,44.94,56.24-16.13-13.37-25.26-28.06-26.1-43.79-3.13-58.45,146.86-123.53,311.03-155.66-108.45,26.15-216,74.81-216,119.81,0,37.92,49.38,72.35,129.77,97.91-29.14-19.78-45.44-41.65-45.44-64.67,0-88.47,238.99-160.19,533.8-160.19Z"/>
  <path class="cls-2" d="M4620.64,239.27c0,122.39-99.61,221.99-222.03,221.99h-161.32V135.91h72.6v251.27l88.72-.08c81.54,0,147.88-66.3,147.88-147.84s-66.34-147.88-147.88-147.88h-118.88c-9.49,9.02-22.3,14.56-36.42,14.56-29.2,0-52.9-23.66-52.9-52.86S4214.11.21,4243.31.21c15.4,0,29.24,6.58,38.89,17.07h116.4c122.43,0,222.03,99.57,222.03,221.99Z"/>
</svg>